<svg id="Layer_1" data-name="Layer 1" xmlns="http://www.w3.org/2000/svg" viewBox="0 0 785.13 301.4"><defs><style>.cls-1{fill:#fff;}</style></defs><title>bigEvent</title><path class="cls-1" d="M171.33,103.24c42.24,4.93,57,16.19,57,16.19s33.09,15.49,35.2,60.55-37.31,67.58-37.31,67.58,54.21,14.09,54.21,77.09c0,76.82-97.86,77.8-97.86,77.8H5.18V103.24S129.09,98.31,171.33,103.24ZM74.18,154.63v71.81h85.18s37.32-1.4,36.62-35.9-38.73-35.91-38.73-35.91Zm0,122.3v74.83h96.5s42.27-1.47,41.47-37.41-43.87-37.42-43.87-37.42Z" transform="translate(-5.18 -101.05)"/><polygon class="cls-1" points="360.14 246.72 521.95 246.72 521.95 301.4 290.09 301.4 290.09 3.13 516.32 3.13 515.85 57.57 359.56 59.45 359.56 123.28 497.55 123.28 497.55 175.88 360.02 175.88 360.14 246.72"/><polygon class="cls-1" points="539.19 71.66 612.41 71.66 661.22 138.77 712.38 71.66 782.31 71.66 697.36 185.24 785.13 301.4 709.56 301.4 662.16 231.71 608.65 301.4 535.43 301.4 623.67 186.53 539.19 71.66"/></svg>